<svg width="621" height="476" viewBox="0 0 621 476" fill="none" xmlns="http://www.w3.org/2000/svg">
<path d="M620.984 93.0002C620.984 103.667 617.245 112.734 609.767 120.2L319.714 409.8L265.229 464.2C257.751 471.667 248.67 475.4 237.987 475.4C227.304 475.4 218.223 471.667 210.744 464.2L156.259 409.8L11.2331 265C3.75479 257.534 0.015625 248.467 0.015625 237.8C0.015625 227.134 3.75479 218.067 11.2331 210.6L65.7181 156.2C73.1965 148.734 82.2773 145 92.9606 145C103.644 145 112.725 148.734 120.203 156.2L237.987 274.2L500.797 11.4002C508.275 3.93353 517.356 0.200195 528.039 0.200195C538.723 0.200195 547.804 3.93353 555.282 11.4002L609.767 65.8002C617.245 73.2669 620.984 82.3335 620.984 93.0002Z" fill="#5AB56E"/>
</svg>
