<svg width="444" height="444" viewBox="0 0 444 444" fill="none" xmlns="http://www.w3.org/2000/svg">
<path d="M296.443 222L433.208 85.2346C447.266 71.1766 447.266 48.3845 433.208 34.3265L409.673 10.7915C395.615 -3.26645 372.823 -3.26645 358.765 10.7915L222 147.557L85.235 10.7915C71.177 -3.26645 48.385 -3.26645 34.327 10.7915L10.792 34.3265C-3.26596 48.3845 -3.26596 71.1766 10.792 85.2346L147.557 222L10.792 358.765C-3.26596 372.823 -3.26596 395.615 10.792 409.673L34.327 433.208C48.385 447.266 71.177 447.266 85.235 433.208L222 296.443L358.765 433.208C372.823 447.266 395.615 447.266 409.673 433.208L433.208 409.673C447.266 395.615 447.266 372.823 433.208 358.765L296.443 222Z" fill="#FF473E"/>
</svg>
