<svg width="899" height="999" viewBox="0 0 899 999" fill="none" xmlns="http://www.w3.org/2000/svg">
<path d="M292.144 0.75L208.853 125.438L265.71 162.844L107.107 399.75H100.125C45.2625 399.75 0.375 444.638 0.375 499.5C0.436531 522.271 8.28702 544.335 22.6222 562.027C36.9574 579.719 56.9144 591.974 79.1775 596.756L280.672 898.5H100.125V998.25H598.875V898.5H399.375L176.434 563.34C191.484 545.463 199.781 522.869 199.875 499.5C199.875 484.538 196.384 469.575 189.9 456.109L349.5 218.704C338.528 302.494 386.906 394.264 471.694 449.625L693.139 118.954C608.85 62.595 505.11 52.62 431.794 94.0163L292.144 0.75ZM665.209 250.125L582.416 374.813C616.331 397.256 663.214 388.279 686.156 353.865C709.099 319.451 698.625 273.068 665.209 250.125ZM833.288 528.428L727.552 422.194L762.465 387.281L868.2 493.016L833.288 528.428ZM898.125 250.125H748.5V200.25H898.125V250.125ZM549 599.25V449.625H598.875V599.25H549Z" fill="black"/>
</svg>
