<svg width="699" height="949" viewBox="0 0 699 949" fill="none" xmlns="http://www.w3.org/2000/svg">
<path d="M349.5 0.75C389.183 0.75 427.241 16.514 455.301 44.5741C483.361 72.6343 499.125 110.692 499.125 150.375V449.625C499.125 489.308 483.361 527.366 455.301 555.426C427.241 583.486 389.183 599.25 349.5 599.25C309.817 599.25 271.759 583.486 243.699 555.426C215.639 527.366 199.875 489.308 199.875 449.625V150.375C199.875 110.692 215.639 72.6343 243.699 44.5741C271.759 16.514 309.817 0.75 349.5 0.75ZM698.625 449.625C698.625 625.684 568.451 770.82 399.375 795.259V948.375H299.625V795.259C130.549 770.82 0.375 625.684 0.375 449.625H100.125C100.125 515.763 126.398 579.193 173.165 625.96C219.932 672.727 283.362 699 349.5 699C415.638 699 479.068 672.727 525.835 625.96C572.602 579.193 598.875 515.763 598.875 449.625H698.625Z" fill="black"/>
</svg>
