<svg width="773" height="773" viewBox="0 0 773 773" fill="none" xmlns="http://www.w3.org/2000/svg">
<path d="M386.5 386.5C333.47 386.5 288.074 367.619 250.311 329.855C212.548 292.092 193.666 246.696 193.666 193.667C193.666 140.638 212.548 95.2415 250.311 57.4783C288.074 19.7151 333.47 0.833496 386.5 0.833496C439.529 0.833496 484.925 19.7151 522.688 57.4783C560.451 95.2415 579.333 140.638 579.333 193.667C579.333 246.696 560.451 292.092 522.688 329.855C484.925 367.619 439.529 386.5 386.5 386.5ZM0.833008 772.167V637.184C0.833008 609.866 7.87143 584.765 21.9483 561.882C36.0251 538.999 54.6978 521.516 77.9663 509.431C127.782 484.524 178.4 465.851 229.823 453.413C281.245 440.976 333.47 434.741 386.5 434.709C439.529 434.676 491.755 440.911 543.177 453.413C594.599 465.915 645.218 484.588 695.033 509.431C718.334 521.484 737.022 538.967 751.099 561.882C765.176 584.797 772.198 609.898 772.166 637.184V772.167H0.833008Z" fill="black"/>
</svg>
