<svg width="770" height="962" viewBox="0 0 770 962" fill="none" xmlns="http://www.w3.org/2000/svg">
<path d="M529.25 96.3332H96.4997V865.667H673.5V240.583H529.25V96.3332ZM96.4997 0.166504H577.333L769.666 192.5V865.667C769.666 891.172 759.534 915.632 741.5 933.667C723.465 951.701 699.005 961.833 673.5 961.833H96.4997C70.9947 961.833 46.5343 951.701 28.4996 933.667C10.4648 915.632 0.333008 891.172 0.333008 865.667V96.3332C0.333008 70.8282 10.4648 46.3678 28.4996 28.3331C46.5343 10.2983 70.9947 0.166504 96.4997 0.166504ZM192.666 432.917H577.333V529.083H192.666V432.917ZM192.666 625.25H577.333V721.417H192.666V625.25Z" fill="black"/>
</svg>
