<svg width="999" height="1089" viewBox="0 0 999 1089" fill="none" xmlns="http://www.w3.org/2000/svg">
<path fill-rule="evenodd" clip-rule="evenodd" d="M499.5 0.75C774.96 0.75 998.25 224.04 998.25 499.5C998.25 774.96 774.96 998.25 499.5 998.25C224.04 998.25 0.75 774.96 0.75 499.5C0.75 224.04 224.04 0.75 499.5 0.75ZM499.5 100.5C393.679 100.5 292.191 142.537 217.364 217.364C142.537 292.191 100.5 393.679 100.5 499.5C100.5 605.321 142.537 706.809 217.364 781.636C292.191 856.463 393.679 898.5 499.5 898.5C605.321 898.5 706.809 856.463 781.636 781.636C856.463 706.809 898.5 605.321 898.5 499.5C898.5 393.679 856.463 292.191 781.636 217.364C706.809 142.537 605.321 100.5 499.5 100.5ZM459.949 539.051L499.5 578.602L539.051 539.051C548.457 529.966 561.056 524.939 574.133 525.052C587.21 525.166 599.719 530.411 608.967 539.658C618.214 548.906 623.459 561.415 623.573 574.492C623.686 587.569 618.659 600.168 609.574 609.574L570.023 649.125L609.574 688.676C618.659 698.082 623.686 710.681 623.573 723.758C623.459 736.835 618.214 749.344 608.967 758.592C599.719 767.839 587.21 773.084 574.133 773.198C561.056 773.311 548.457 768.284 539.051 759.199L499.5 719.648L459.949 759.199C450.543 768.284 437.944 773.311 424.867 773.198C411.79 773.084 399.281 767.839 390.033 758.592C380.786 749.344 375.541 736.835 375.427 723.758C375.314 710.681 380.341 698.082 389.426 688.676L428.977 649.125L389.426 609.574C384.662 604.973 380.863 599.47 378.249 593.385C375.635 587.3 374.259 580.755 374.202 574.133C374.144 567.511 375.406 560.943 377.914 554.814C380.421 548.684 384.125 543.116 388.808 538.433C393.491 533.75 399.059 530.046 405.189 527.539C411.318 525.031 417.886 523.769 424.508 523.827C431.13 523.884 437.675 525.26 443.76 527.874C449.845 530.488 455.348 534.287 459.949 539.051ZM324.938 300C344.779 300 363.808 307.882 377.838 321.912C391.868 335.942 399.75 354.971 399.75 374.813C399.75 394.654 391.868 413.683 377.838 427.713C363.808 441.743 344.779 449.625 324.938 449.625C305.096 449.625 286.067 441.743 272.037 427.713C258.007 413.683 250.125 394.654 250.125 374.813C250.125 354.971 258.007 335.942 272.037 321.912C286.067 307.882 305.096 300 324.938 300ZM674.063 300C693.904 300 712.933 307.882 726.963 321.912C740.993 335.942 748.875 354.971 748.875 374.813C748.875 394.654 740.993 413.683 726.963 427.713C712.933 441.743 693.904 449.625 674.063 449.625C654.221 449.625 635.192 441.743 621.162 427.713C607.132 413.683 599.25 394.654 599.25 374.813C599.25 354.971 607.132 335.942 621.162 321.912C635.192 307.882 654.221 300 674.063 300Z" fill="black"/>
</svg>
